<svg xmlns="http://www.w3.org/2000/svg" width="137" height="46" viewBox="0 0 137 46"><link xmlns="" type="text/css" id="dark-mode" rel="stylesheet" href=""/><style xmlns="" type="text/css" id="dark-mode-custom-style"/>
  <g id="Grupo_88855" data-name="Grupo 88855" transform="translate(-837 -8761)">
    <rect id="Rectángulo_14183" data-name="Rectángulo 14183" width="137" height="46" rx="23" transform="translate(837 8761)"/>
    <g id="Logo_Tenpo" data-name="Logo Tenpo" transform="translate(865.569 8771)">
      <path id="Trazado_14473" data-name="Trazado 14473" d="M215.1,166.788l8.495,10.119a1.789,1.789,0,0,0,1.089.612v-5.882l-8.491-9.708a1.784,1.784,0,0,0-1.092-.589Z" transform="translate(-184.641 -156.407)" fill="#6afe99"/>
      <path id="Trazado_14474" data-name="Trazado 14474" d="M270.078,164.767a4.078,4.078,0,0,1,2.169.584,4.257,4.257,0,0,1,1.537,1.623,4.828,4.828,0,0,1,.57,2.34,4.749,4.749,0,0,1-.568,2.324,4.21,4.21,0,0,1-1.539,1.612,4.186,4.186,0,0,1-5.859-1.608,4.842,4.842,0,0,1-.557-2.329,4.914,4.914,0,0,1,.559-2.344,4.087,4.087,0,0,1,3.689-2.2m4.112-2.526h0a8.147,8.147,0,0,0-4.112-1.07,7.917,7.917,0,0,0-6.991,4,8.19,8.19,0,0,0-1.069,4.138v13.017a1.894,1.894,0,0,0,.569,1.42,1.955,1.955,0,0,0,3.352-1.42v-6.565a7.264,7.264,0,0,0,4.684,1.664,7.24,7.24,0,0,0,3.854-1.065,7.478,7.478,0,0,0,2.712-2.93,8.733,8.733,0,0,0,.978-4.121,8.28,8.28,0,0,0-1.054-4.134,7.766,7.766,0,0,0-2.923-2.938" transform="translate(-216.677 -156.292)" fill="#fff"/>
      <path id="Trazado_14475" data-name="Trazado 14475" d="M327.078,173.261a4.506,4.506,0,0,1-4.4,0,4.013,4.013,0,0,1-1.518-1.591,4.9,4.9,0,0,1-.557-2.355,4.982,4.982,0,0,1,.558-2.372,4.051,4.051,0,0,1,1.517-1.6,4.507,4.507,0,0,1,4.4,0,3.9,3.9,0,0,1,1.5,1.6,5.066,5.066,0,0,1,.548,2.376,4.988,4.988,0,0,1-.546,2.361,3.918,3.918,0,0,1-1.5,1.586m4.82-8.149a7.56,7.56,0,0,0-2.884-2.9,8.274,8.274,0,0,0-4.137-1.041,8.394,8.394,0,0,0-4.174,1.041,7.43,7.43,0,0,0-2.888,2.9,9.055,9.055,0,0,0,0,8.371,7.43,7.43,0,0,0,2.888,2.9,8.872,8.872,0,0,0,8.338,0,7.455,7.455,0,0,0,2.873-2.9,9,9,0,0,0-.016-8.374" transform="translate(-254.077 -156.292)" fill="#fff"/>
      <path id="Trazado_14476" data-name="Trazado 14476" d="M162.128,167.606h-7.653a3.94,3.94,0,0,1,4.067-2.859,3.418,3.418,0,0,1,2.514.927,3.954,3.954,0,0,1,1.071,1.932m.333-5.336a7.438,7.438,0,0,0-3.918-1.009,8.062,8.062,0,0,0-4.085,1.044,7.386,7.386,0,0,0-2.831,2.919,8.652,8.652,0,0,0-1.009,4.181,8.218,8.218,0,0,0,1.071,4.18,7.614,7.614,0,0,0,2.985,2.9,8.893,8.893,0,0,0,7.088.545,8.1,8.1,0,0,0,2.462-1.284,1.554,1.554,0,0,0,.665-1.274,1.857,1.857,0,0,0-1.879-1.77,1.972,1.972,0,0,0-1.245.416,4.545,4.545,0,0,1-1.294.649,4.96,4.96,0,0,1-4.655-.772,4.116,4.116,0,0,1-1.379-2.063h9.635a1.8,1.8,0,0,0,1.3-.5,1.723,1.723,0,0,0,.529-1.27,9.138,9.138,0,0,0-.876-4.065,6.694,6.694,0,0,0-2.559-2.824" transform="translate(-140.608 -156.353)" fill="#fff"/>
      <path id="Trazado_14477" data-name="Trazado 14477" d="M206.595,171.843V161.3a1.79,1.79,0,0,0-1.33.331l-1.87,1.395a1.791,1.791,0,0,0-.722,1.434l-.018,7.384h-.011v3.688a1.908,1.908,0,0,0,.574,1.43,1.97,1.97,0,0,0,3.378-1.43Z" transform="translate(-176.133 -156.365)" fill="#fff"/>
      <path id="Trazado_14478" data-name="Trazado 14478" d="M245.32,166.912v10.544a1.782,1.782,0,0,0,1.33-.331l1.87-1.394a1.794,1.794,0,0,0,.722-1.435l.018-7.385h.011v-3.688a1.908,1.908,0,0,0-.574-1.43,1.97,1.97,0,0,0-3.378,1.43Z" transform="translate(-205.275 -156.344)" fill="#fff"/>
      <path id="Trazado_14479" data-name="Trazado 14479" d="M129.136,163.718h0a1.651,1.651,0,0,0-1.257-.572h-.926a1.259,1.259,0,0,1-1.027-.524,2.222,2.222,0,0,1-.47-1.463v-7H127.2a1.87,1.87,0,0,0,1.315-.479,1.643,1.643,0,0,0,.538-1.237,1.706,1.706,0,0,0-.539-1.292,1.872,1.872,0,0,0-1.314-.479h-1.738v-4.06a.823.823,0,0,0-1.3-.671l-.012.01-1.847,1.375a1.774,1.774,0,0,0-.713,1.417l0,1.929h-.673a1.869,1.869,0,0,0-1.314.479,1.7,1.7,0,0,0-.539,1.292,1.641,1.641,0,0,0,.538,1.237,1.868,1.868,0,0,0,1.315.479h.681v7a6.324,6.324,0,0,0,.691,2.961,5.422,5.422,0,0,0,1.932,2.112,4.987,4.987,0,0,0,2.742.692h.491a2.239,2.239,0,0,0,1.527-.427,1.8,1.8,0,0,0,.651-1.415,1.975,1.975,0,0,0-.486-1.361" transform="translate(-119.055 -145.784)" fill="#fff"/>
    </g>
  </g>
</svg>